<svg width="256" height="256" viewBox="0 0 256 256" fill="none" xmlns="http://www.w3.org/2000/svg">
<g clip-path="url(#clip0_103_168)">
<rect width="256" height="256" fill="white"/>
<path fill-rule="evenodd" clip-rule="evenodd" d="M0 0H255.822V91.1304L256 162.087L255.822 256H0L0 0Z" fill="url(#paint0_linear_103_168)"/>
<g filter="url(#filter0_d_103_168)">
<path d="M378 -6H-195.894L-197 -2.5974L-195.894 256H310.505L378 -6Z" fill="url(#paint1_linear_103_168)"/>
</g>
<path d="M60.6172 233.181C60.6172 232.975 63.166 217.432 66.3008 198.675C71.8379 165.143 71.9551 164.494 73.0098 162.371C75.1191 158.094 79.6309 154.821 84.3477 154.201C87.3066 153.818 168.693 153.818 171.652 154.201C176.369 154.821 180.881 158.094 182.99 162.371C184.045 164.494 184.162 165.143 189.699 198.675C192.834 217.432 195.383 232.975 195.383 233.181C195.383 233.447 181.701 233.535 128 233.535C74.2988 233.535 60.6172 233.447 60.6172 233.181ZM130.402 220.854C144.055 219.261 154.924 207.376 155.012 193.868C155.1 182.897 147.629 172.25 137.053 168.269C129.582 165.438 121.818 166.116 114.963 170.186C106.994 174.905 102.219 182.189 101.047 191.42C100.402 196.729 102.219 203.542 105.734 208.791C107.287 211.121 110.627 214.454 112.941 216.046C116.604 218.553 121.232 220.352 125.188 220.824C126.33 220.971 127.414 221.089 127.561 221.119C127.736 221.119 128.996 221.001 130.402 220.854Z" fill="#766964"/>
<path d="M77.0234 135.739C74.6211 135.238 70.373 133.114 68.1758 131.345C66.1836 129.723 63.8691 126.744 62.6387 124.208C61.1445 121.081 60.6172 118.368 60.6172 113.738V109.668H128H195.383V113.738C195.383 119.961 194.27 123.588 190.959 128.012C189.084 130.548 186.828 132.347 183.518 134.029C178.859 136.358 182.639 136.211 127.854 136.181C87.2188 136.181 78.6055 136.093 77.0234 135.739ZM99.9043 118.811C100.578 118.427 100.607 117.985 99.9629 117.277C99.5234 116.776 98.791 116.746 89.0352 116.746C78.9863 116.746 78.5176 116.776 77.873 117.336L77.1699 117.926L77.873 118.516C78.5176 119.076 78.9863 119.105 88.9473 119.105C95.5391 119.105 99.5234 118.987 99.9043 118.811ZM115.139 118.516L115.842 117.926L115.139 117.336C114.553 116.835 114.025 116.746 111.594 116.746C109.162 116.746 108.635 116.835 108.049 117.336L107.346 117.926L108.049 118.516C108.635 119.017 109.162 119.105 111.594 119.105C114.025 119.105 114.553 119.017 115.139 118.516Z" fill="#766964"/>
<path d="M124.309 221.709C115.578 220.677 107.082 214.631 102.98 206.461C101.838 204.19 100.52 200.032 100.314 197.997C100.227 197.024 100.08 195.933 99.9922 195.579C99.875 194.9 99.9336 194.9 102.512 194.9C105.236 194.9 106.32 194.605 106.32 193.868C106.32 192.954 105.09 192.541 102.482 192.541H99.9336L100.08 191.155C101.398 177.795 111.74 167.178 124.865 165.733L126.828 165.526V168.151C126.828 170.982 127.121 171.896 128 171.896C128.879 171.896 129.172 170.982 129.172 168.121V165.526L130.871 165.733C140.07 166.824 147.365 171.513 152.111 179.417C154.016 182.573 155.422 186.937 155.949 191.155L156.125 192.541H153.4C150.617 192.571 149.68 192.865 149.68 193.809C149.68 194.605 150.676 194.9 153.43 194.9H156.037L155.891 196.463C155.686 198.941 154.455 203.424 153.371 205.724C150.646 211.475 146.105 216.135 140.451 218.996C138.137 220.175 134.24 221.414 132.16 221.62C131.252 221.709 130.197 221.827 129.846 221.915C129.172 222.033 129.172 221.974 129.172 219.32C129.143 215.899 128.527 214.778 127.297 216.017C126.945 216.371 126.828 217.108 126.828 219.261C126.828 220.795 126.74 222.004 126.623 222.004C126.477 221.974 125.451 221.856 124.309 221.709ZM129.201 198.705C131.574 197.909 133.654 194.694 133.01 192.806C132.248 190.595 132.365 190.359 136.965 185.728C141.008 181.629 141.213 181.393 140.715 180.921C140.246 180.42 140.012 180.626 135.939 184.696C131.311 189.356 131.252 189.385 128.82 188.678C125.861 187.852 122.082 191.863 123.02 194.841C123.459 196.139 124.807 197.673 126.242 198.439C127.443 199.118 127.883 199.147 129.201 198.705Z" fill="#DFEEF4"/>
<path d="M125.656 196.08C125.188 195.608 125.07 195.107 125.07 193.721C125.07 191.361 125.656 190.771 128.029 190.771C130.344 190.771 130.93 191.391 130.93 193.78C130.93 196.139 130.373 196.67 128 196.67C126.623 196.67 126.125 196.552 125.656 196.08Z" fill="#DFEEF4"/>
<path d="M69.4062 239.581V233.83H128H186.594V239.581V245.332H128H69.4062V239.581Z" fill="#14B4B7"/>
<path d="M126.154 221.856C126.037 221.738 125.949 220.264 125.949 218.612C125.949 215.869 126.008 215.515 126.594 214.955C127.443 214.188 128.703 214.188 129.465 215.014C130.021 215.604 130.051 215.987 129.992 218.789L129.904 221.886L128.146 221.974C127.15 222.033 126.271 221.974 126.154 221.856Z" fill="#14B4B7"/>
<path d="M125.363 199.324C123.986 198.587 122.58 197.053 122.17 195.815C120.588 191.007 124.924 186.436 129.758 187.822L130.783 188.117L135.031 183.841C138.635 180.243 139.426 179.564 140.158 179.564C140.656 179.564 141.184 179.682 141.359 179.8C141.916 180.154 142.355 181.275 142.18 181.835C142.063 182.13 140.07 184.313 137.756 186.672C133.713 190.801 133.537 190.978 133.859 191.774C134.914 194.635 133.01 198.587 130.08 199.59C128.615 200.062 126.535 199.973 125.363 199.324ZM129.465 195.195C131.311 193.337 128.527 190.447 126.594 192.246C125.246 193.514 126.154 195.785 128 195.785C128.498 195.785 129.143 195.52 129.465 195.195Z" fill="#14B4B7"/>
<path d="M99.9922 195.372C99.9043 195.166 99.875 194.252 99.9336 193.396L100.021 191.804L102.98 191.715C105.588 191.656 105.998 191.715 106.701 192.246C107.668 193.013 107.756 194.34 106.906 195.195C106.408 195.697 105.939 195.785 103.244 195.785C100.9 195.785 100.109 195.697 99.9922 195.372Z" fill="#14B4B7"/>
<path d="M149.094 195.195C148.303 194.399 148.332 193.013 149.152 192.246C149.709 191.715 150.178 191.656 152.961 191.656H156.154L156.066 193.662L155.979 195.638L152.844 195.726C150.002 195.785 149.65 195.756 149.094 195.195Z" fill="#14B4B7"/>
<path d="M126.535 172.486C126.037 171.985 125.949 171.513 125.949 168.829C125.949 165.438 125.949 165.408 128 165.408C130.051 165.408 130.051 165.438 130.051 168.829C130.051 172.28 129.67 173.076 128 173.076C127.502 173.076 126.857 172.811 126.535 172.486Z" fill="#14B4B7"/>
<path d="M118.332 145.059V136.506H128H137.668V145.059V153.611H128H118.332V145.059Z" fill="#F9BA38"/>
<path d="M76.9941 119.459C76.0859 118.693 76.0859 117.159 76.9941 116.392C77.6387 115.891 78.4297 115.861 89.0059 115.861H100.373L100.988 116.54C101.779 117.395 101.809 118.634 101.047 119.4C100.49 119.961 100.08 119.99 89.0645 119.99C78.4297 119.99 77.6387 119.961 76.9941 119.459Z" fill="#5D4F4A"/>
<path d="M107.053 119.253C106.643 118.87 106.32 118.28 106.32 117.926C106.32 117.601 106.643 116.982 107.053 116.599C107.727 115.891 107.902 115.861 111.535 115.861C115.93 115.861 116.662 116.156 116.662 117.926C116.662 119.695 115.93 119.99 111.535 119.99C107.902 119.99 107.727 119.961 107.053 119.253Z" fill="#5D4F4A"/>
<rect x="83.3793" y="21.1119" width="90.5655" height="81.4925" rx="4" fill="#484B63" fill-opacity="0.3"/>
<path d="M144.033 98.9569C144.033 98.2391 144.076 98.1956 144.79 98.1956C145.202 98.1956 145.548 98.2391 145.548 98.2826C145.548 98.4131 144.249 99.7183 144.119 99.7183C144.076 99.7183 144.033 99.3702 144.033 98.9569Z" fill="#ABD641"/>
<path d="M89.1532 98.1956C88.9151 98.1086 88.4821 97.7606 88.179 97.4343L87.6378 96.8469L87.5729 89.9731L87.5079 83.0776L93.3098 77.2696L99.1116 71.4399L106.147 78.5095L113.183 85.5791L106.797 91.9961L100.411 98.4131L94.9984 98.3914C92.0325 98.3914 89.3913 98.3044 89.1532 98.1956Z" fill="#ABD641"/>
<path d="M127.363 76.1167C139.573 63.8483 149.683 53.8204 149.835 53.8204C151.004 53.8204 149.878 55.0168 128.532 76.4648C107.879 97.2167 106.645 98.4131 105.931 98.4131C105.195 98.4131 106.083 97.4995 127.363 76.1167Z" fill="#ABD641"/>
<path d="M168.279 97.543C168.279 96.9557 168.344 96.8904 168.929 96.8904C169.513 96.8904 169.557 96.934 169.34 97.3037C169.188 97.5213 168.907 97.8041 168.691 97.9563C168.323 98.1739 168.279 98.1303 168.279 97.543Z" fill="#ABD641"/>
<path d="M168.929 73.6805C168.929 72.9191 168.929 72.8974 169.362 73.2889C169.6 73.5064 169.795 73.8545 169.795 74.0938C169.795 74.333 169.643 74.4853 169.362 74.4853C169.015 74.4853 168.929 74.333 168.929 73.6805Z" fill="#ABD641"/>
<path d="M164.209 69.5692C164.058 69.3952 163.95 68.9602 163.993 68.5904L164.058 67.9378L165.032 68.9167L165.984 69.9173H165.248C164.837 69.8955 164.361 69.765 164.209 69.5692Z" fill="#ABD641"/>
<path d="M160.291 65.6973C160.139 65.5233 160.053 65.0664 160.096 64.6967L160.161 64.0223L161.135 65.0012L162.088 66.0018H161.308C160.897 66.0018 160.421 65.8713 160.291 65.6973Z" fill="#ABD641"/>
<path d="M162.434 98.1086C162.434 97.9128 162.759 97.3255 163.17 96.7817C164.361 95.2372 164.426 94.5629 164.339 84.274L164.274 75.0291L163.668 73.724C163.148 72.5928 162.001 71.3529 155.117 64.4139L147.172 56.4307L148.536 55.0603L149.878 53.7116L159.836 63.7395L169.816 73.7675L169.751 85.3181L169.686 96.8904L168.972 97.5865L168.279 98.3044L165.357 98.3696C162.824 98.4349 162.434 98.3914 162.434 98.1086Z" fill="#B7E546"/>
<path d="M117.686 55.3431C116.993 55.0603 117.058 54.8427 118.162 53.7116C118.704 53.146 119.44 52.0367 119.829 51.2536C120.457 49.9484 120.544 49.6004 120.544 47.9472C120.544 46.3375 120.457 45.9242 119.873 44.6843C119.505 43.9012 118.747 42.7701 118.206 42.161C117.643 41.5302 117.188 40.9211 117.188 40.8123C117.188 40.225 120.609 40.0945 122.124 40.6383C126.346 42.161 128.424 47.0336 126.541 51.0796C125.242 53.8856 122.947 55.4083 119.894 55.4953C118.942 55.5388 117.946 55.4518 117.686 55.3431Z" fill="#FFD549"/>
<path d="M139.703 99.827C139.703 99.6313 139.465 99.2397 139.162 98.9569L138.642 98.4131H122.016H105.39L126.605 77.0956L147.821 55.7781L155.68 63.6743C162.521 70.5263 163.625 71.7227 164.231 72.9626L164.924 74.3765L164.989 84.448C165.054 95.607 165.01 96.0421 163.733 97.6083L163.062 98.4131H154.424C148.471 98.4131 145.613 98.5001 145.245 98.6524C144.964 98.8047 144.596 99.1962 144.444 99.5225L144.206 100.153H141.954C140.071 100.153 139.703 100.088 139.703 99.827Z" fill="#C9EB74"/>
<path d="M110.109 72.7016C103.117 65.6755 102.207 64.8489 101.601 64.8489C100.995 64.8489 100.172 65.5885 94.219 71.5704C87.7027 78.0962 87.5295 78.2702 87.5295 77.5307C87.5295 76.8346 87.9842 76.3343 93.6345 70.6351C97.0117 67.2417 99.891 64.4791 100.021 64.4791C100.172 64.4791 100.302 64.3921 100.302 64.2616C100.302 64.1311 100.887 64.0441 101.644 64.0441H102.987L110.585 71.6575L118.162 79.2709L133.1 64.2616C141.5 55.8216 148.211 49.2523 148.406 49.2523C148.622 49.2523 148.795 49.1436 148.795 49.013C148.795 48.839 149.185 48.7955 150.008 48.8608L151.22 48.9695L157.26 55.0385L163.3 61.1075V45.9677C163.3 29.3705 163.322 29.5445 162.023 27.9131C160.854 26.4556 160.94 26.4121 164.512 26.4121C166.98 26.4121 167.825 26.4991 168.409 26.7602C169.881 27.4562 169.795 26.2381 169.795 48.752V69.1559L160.096 59.4108C151.631 50.9273 150.332 49.6874 149.77 49.6874C149.207 49.6874 147.258 51.5581 133.75 65.1317C125.307 73.6369 118.292 80.576 118.162 80.576C118.033 80.576 114.417 77.0303 110.109 72.7016Z" fill="#91DAFA"/>
<path d="M116.625 59.389C115.305 59.0845 112.642 57.8663 112.642 57.5618C112.642 57.4748 112.426 57.3008 112.166 57.192C111.884 57.0615 111.581 56.757 111.451 56.4959C111.343 56.2349 111.062 55.9739 110.845 55.9086C110.629 55.8651 110.391 55.6041 110.326 55.3648C110.261 55.1038 110.131 54.908 110.023 54.908C109.914 54.908 109.525 54.2989 109.157 53.5811C107.944 51.1448 107.576 47.9907 108.182 45.0758C108.507 43.5967 109.503 41.2039 109.828 41.2039C109.914 41.2039 110.044 41.0081 110.109 40.7688C110.196 40.4425 110.412 40.3338 110.889 40.3338H111.56L110.672 41.6389C109.438 43.4661 108.918 45.0758 108.789 47.4251C108.637 50.6445 109.698 53.4288 111.928 55.6476C115.326 59.0192 120.695 59.8241 124.852 57.5618C126.605 56.6264 128.489 54.6035 129.377 52.7327C129.961 51.4711 130.61 49.2523 130.61 48.4475C130.61 48.404 130.762 48.3822 130.957 48.3822C131.282 48.3822 131.303 48.578 131.195 49.7744C130.979 52.0584 129.485 55.343 128.662 55.343C128.381 55.343 128.229 55.5171 128.186 55.9521C128.143 56.3654 127.991 56.5612 127.645 56.6047C127.363 56.6482 127.147 56.8222 127.147 57.018C127.147 57.192 126.952 57.3878 126.714 57.453C126.476 57.5183 126.281 57.6488 126.281 57.7576C126.281 57.8663 126.151 57.9533 125.978 57.9533C125.804 57.9533 125.631 58.0621 125.588 58.1709C125.545 58.3014 124.83 58.6494 124.008 58.954C122.124 59.65 118.682 59.8458 116.625 59.389Z" fill="#91DAFA"/>
<path d="M130.61 47.3598C130.589 46.4245 129.831 43.9447 129.203 42.7483C127.536 39.5724 124.635 37.6147 120.609 36.9621C120.089 36.8751 119.786 36.7228 119.786 36.5271C119.786 36.092 121.258 36.092 122.882 36.5271C124.311 36.8969 126.714 38.0715 126.714 38.376C126.714 38.5066 126.844 38.5936 126.995 38.5936C127.342 38.5936 128.879 40.1597 128.879 40.5078C128.879 40.6601 128.965 40.7688 129.095 40.7688C129.203 40.7688 129.593 41.3561 129.961 42.074C131.108 44.3797 131.671 47.5121 130.935 47.5121C130.762 47.5121 130.61 47.4469 130.61 47.3598Z" fill="#91DAFA"/>
<path d="M111.993 39.2244C111.993 38.7458 112.101 38.5283 112.426 38.4413C112.664 38.376 112.859 38.2455 112.859 38.1368C112.859 38.028 113.01 37.941 113.183 37.941C113.356 37.941 113.508 37.854 113.508 37.7452C113.508 37.2667 117.015 36.2008 118.595 36.2008C119.656 36.2008 119.613 36.7881 118.552 36.9621C116.777 37.2232 114.72 38.0062 113.4 38.9416L111.993 39.8987V39.2244Z" fill="#91DAFA"/>
<path d="M87.5295 28.6961C87.5295 27.6303 88.9151 26.4121 90.1057 26.4121C90.9067 26.4121 90.6686 27.217 89.8243 27.3692C89.3047 27.478 89.0017 27.6955 88.6986 28.2611C88.2872 29.0442 87.5295 29.3052 87.5295 28.6961Z" fill="#91DAFA"/>
<path d="M98.7869 26.8036C98.7869 26.6514 99.1116 26.3686 99.5013 26.1946C99.8693 26.0205 100.281 25.6507 100.411 25.3897C100.714 24.6936 101.385 24.7371 101.385 25.4332C101.385 26.2598 100.475 27.0647 99.5446 27.0647C99.0899 27.0647 98.7869 26.9559 98.7869 26.8036Z" fill="#91DAFA"/>
<path d="M105.498 26.6297C105.498 26.3469 105.346 26.1946 105.065 26.1946C104.719 26.1946 104.632 26.0423 104.632 25.542C104.632 24.7154 105.195 24.6502 105.498 25.455C105.628 25.7596 105.996 26.1293 106.364 26.2599C107.273 26.6079 107.208 27.0647 106.256 27.0647C105.65 27.0647 105.498 26.9777 105.498 26.6297Z" fill="#91DAFA"/>
<path d="M110.261 72.6363C102.965 65.3057 102.294 64.6967 101.601 64.6967C100.93 64.6967 100.324 65.2405 94.1973 71.3747L87.5295 78.0527V53.2548V28.4351L88.0275 27.6955C88.7852 26.5644 89.4346 26.4339 94.8468 26.4339L99.6745 26.4121L100.194 25.8683C100.497 25.5855 100.735 25.2375 100.735 25.107C100.735 24.9765 101.58 24.8895 103.008 24.8895C104.762 24.8895 105.281 24.9547 105.281 25.1722C105.281 25.3463 105.498 25.6726 105.779 25.9336L106.277 26.4121H134.118H161.979L162.651 27.217C163.971 28.8484 163.949 28.5656 163.949 46.6203V63.0652L157.303 56.3872C153.623 52.7327 150.419 49.6656 150.159 49.5786C149.899 49.5134 149.445 49.5569 149.185 49.6874C148.904 49.8396 141.824 56.844 133.425 65.2622L118.162 80.576L110.261 72.6363ZM123.142 58.3884C127.558 56.8657 130.61 52.6022 130.61 47.9472C130.61 41.8565 125.588 36.8099 119.57 36.8751C116.474 36.8969 113.768 38.115 111.56 40.486C109.286 42.9223 108.247 46.1417 108.702 49.3611C109.698 56.2567 116.69 60.6289 123.142 58.3884Z" fill="#B2E5FB"/>
</g>
<defs>
<filter id="filter0_d_103_168" x="-201" y="-6" width="583" height="270" filterUnits="userSpaceOnUse" color-interpolation-filters="sRGB">
<feFlood flood-opacity="0" result="BackgroundImageFix"/>
<feColorMatrix in="SourceAlpha" type="matrix" values="0 0 0 0 0 0 0 0 0 0 0 0 0 0 0 0 0 0 127 0" result="hardAlpha"/>
<feOffset dy="4"/>
<feGaussianBlur stdDeviation="2"/>
<feComposite in2="hardAlpha" operator="out"/>
<feColorMatrix type="matrix" values="0 0 0 0 0 0 0 0 0 0 0 0 0 0 0 0 0 0 0.25 0"/>
<feBlend mode="normal" in2="BackgroundImageFix" result="effect1_dropShadow_103_168"/>
<feBlend mode="normal" in="SourceGraphic" in2="effect1_dropShadow_103_168" result="shape"/>
</filter>
<linearGradient id="paint0_linear_103_168" x1="162.095" y1="405.824" x2="475.362" y2="95.325" gradientUnits="userSpaceOnUse">
<stop stop-color="#FEC754"/>
<stop offset="0.278014" stop-color="#FFDB8E"/>
<stop offset="0.475432" stop-color="#F8D58B"/>
<stop offset="0.640625" stop-color="#FED47C"/>
<stop offset="0.82488" stop-color="#EBD7AD"/>
<stop offset="1" stop-color="#0061FF"/>
<stop offset="1" stop-color="#FEC754"/>
</linearGradient>
<linearGradient id="paint1_linear_103_168" x1="167.081" y1="409.336" x2="410.439" y2="-120.032" gradientUnits="userSpaceOnUse">
<stop stop-color="#14B4B7"/>
<stop offset="0.278014" stop-color="#81C0CA"/>
<stop offset="0.475432" stop-color="#7BBAC4"/>
<stop offset="0.596493" stop-color="#93C9D1"/>
<stop offset="0.82488" stop-color="#B0D8DE"/>
<stop offset="1" stop-color="#0061FF"/>
<stop offset="1" stop-color="#14B4B7"/>
</linearGradient>
<clipPath id="clip0_103_168">
<rect width="256" height="256" fill="white"/>
</clipPath>
</defs>
</svg>
