<svg width="512" height="512" viewBox="0 0 512 512" fill="none" xmlns="http://www.w3.org/2000/svg">
<path d="M282 510.9C275.8 509.7 270 505.2 266.8 499L264 493.8V435.4C264 384.2 263.8 377 262.5 377C261.2 377 261 370.5 261 324.5V272H165.5H70L70.2 319.3L70.5 366.5L155.9 366.8L241.4 367L243.7 369.2C246.2 371.5 246.9 377 244.8 377C244.1 377.1 242.6 378.5 241.5 380.3L239.5 383.5L141 383.8C71.5 384 41.4 383.8 38.7 383C34 381.6 27.6 375.9 24.7 370.6L22.5 366.5L22.2 198C22 105.3 22.2 26.7 22.5 23.3C23.4 14.6 27.8 7.7 35 3.6L40.5 0.5H172H303.5L309 3.6C313.1 5.9 315.3 8.1 317.8 12L321 17.4L321.2 135.5C321.3 200.4 321.4 262.3 321.4 273L321.5 292.5L397 293C472.5 293.5 472.5 293.5 476.6 295.7C481.3 298.2 485.5 302.8 487.9 308C489.3 311.1 489.5 321.2 489.5 402.5V493.5L486.4 499C482.8 505.5 475.7 510.4 468.4 511.4C461.3 512.3 287.1 511.9 282 510.9ZM469.4 491.4L472 488.7V402.8C472 343.2 471.7 316.3 470.9 314.8C468.3 310 468.4 310 385.6 310H308.1L304.7 305.8C302.8 303.4 296.9 295.2 291.4 287.5L281.5 273.6L281.2 379.5C281.1 437.8 281.2 486.5 281.5 487.7C281.8 488.9 283 490.9 284.2 492C286.4 494 287.3 494 376.6 494H466.7L469.4 491.4ZM50 311.1V255.1L52.6 253.1C55.3 251 55.4 251 171.7 251C276.8 251 288.5 251.2 291.6 252.6C294.9 254.2 298.7 257.9 302.2 263C303.8 265.4 303.9 260.2 303.9 170.3L304 75H172H40V218.1V361.2L42.9 364.1C44.5 365.7 46.8 367 47.9 367H50V311.1ZM304 38.9V23.8L301.1 20.9L298.2 18H172H45.8L42.9 20.9L40 23.8V38.9V54H172H304V38.9Z" fill="#293232"/>
<path d="M369.3 481.5C367.9 480.5 367 478.7 366.8 476.2L366.5 472.5L345.8 472C326.9 471.5 324.9 471.3 322.3 469.4C316.9 465.4 316 462.1 316 445.5C316 427.9 317 424.8 323.7 421.5L327.7 419.5L328.2 394.5C328.6 370.9 328.8 369.1 331.2 362.9C336.6 348.4 347.8 338.2 362 334.5C366.3 333.4 366.5 333.2 366.8 329.3C367.2 323.4 369.8 321.5 377.1 321.5C384.1 321.5 386.1 323.1 386.9 329.1C387.5 333.1 387.7 333.3 393 334.9C396 335.9 400 337.5 401.9 338.5C407.1 341.2 415.7 349.7 419 355.5C424.2 364.6 425 370 425 395.7V419L428.3 420.4C430 421.1 432.6 423 434 424.4C436.4 427.1 436.5 427.5 436.8 444.8C437.2 471.6 436.8 472 406.6 472H387V475.3C387 480.7 384 483 377.2 483C373.7 483 370.6 482.4 369.3 481.5ZM403.3 451.3L417 450.7V445.3V440H377H337V446V452H363.3C377.8 452 395.8 451.7 403.3 451.3ZM404 398.7C404 373.9 403.3 371.2 395.1 362.9C385.8 353.6 376.7 351.8 366.2 357C359.4 360.5 354.7 365.2 351.6 371.9C349.7 376 349.5 378.7 349.2 397.8L348.9 419H376.4H404V398.7Z" fill="#293232"/>
<path d="M52.5 235.5L50 233.1V161C50 90.3 50 89 52 87C53.9 85.1 55.3 85 74.5 85C94.2 85 95 85.1 97 87.2C98.5 88.9 99 90.7 99 95C99 104 98.4 104.4 83.3 105L70.5 105.5L70.2 161.3L70 217H171.5H273V161V105H195.5C119.3 105 118 105 116 103C113.1 100.1 113.1 89.9 116 87C118 85 119.3 85 204 85H289.9L292 87.2C294 89.3 294 90.3 294 161.2V233.1L291.5 235.5L289.1 238H172H54.9L52.5 235.5Z" fill="#293232"/>
<path d="M107.3 206C104.2 204.8 103 201.9 103 196.2C103 191.7 103.9 189.7 112.7 175C118.5 165.4 123.7 158 125.5 156.7C127.9 154.9 130.2 154.4 137 154.2C148.4 153.8 150.9 155.2 157.7 165.9L162.8 174L170.5 161.3C183.7 139.5 184.7 138.6 197.1 138.6C209.1 138.5 209.8 139.2 226.8 167.5C240.3 190 241 191.5 241 196.5C241 200.2 240.4 202.5 239.1 204.1L237.2 206.5L173.3 206.7C137.5 206.8 108.5 206.5 107.3 206ZM140.8 182C139.5 179.8 138.3 178 138 178C137.7 178 136.5 179.8 135.2 182L132.9 186H138H143.1L140.8 182ZM208.5 181.8C207.1 179.4 204.1 174.2 201.7 170.3C199.4 166.3 197.2 163 196.9 163C196.3 163 183 184.6 183 185.6C183 185.8 189.3 186 197.1 186H211.1L208.5 181.8Z" fill="#293232"/>
<path d="M146.6 136.9C144.3 135.1 144 134.2 144 128.5C144 122.8 144.3 121.9 146.6 120.1C148.5 118.6 150.7 118 154 118C157.3 118 159.5 118.6 161.4 120.1C163.7 121.9 164 122.8 164 128.5C164 134.2 163.7 135.1 161.4 136.9C159.5 138.4 157.3 139 154 139C150.7 139 148.5 138.4 146.6 136.9Z" fill="#293232"/>
<path d="M52.0001 44C50.4001 42.4 50.0001 40.7 50.0001 36C50.0001 25.7 49.1001 26 81.4001 26C108.7 26 108.9 26 110.4 28.2C112.8 31.6 112.5 41.5 110 44C108.1 45.9 106.7 46 81.0001 46C55.3001 46 53.9001 45.9 52.0001 44Z" fill="#293232"/>
<path d="M273.5 44C272.4 42.8 271.5 39.9 271.2 36.7C270.8 32.1 271.1 31 273.3 28.4C275.6 25.8 276.4 25.5 282 25.5C290.1 25.6 292 27.6 292 36.1C292 44.3 290.2 46 281.7 46C276.6 46 274.9 45.6 273.5 44Z" fill="#293232"/>
<path d="M160.3 347C154.3 343.4 153.9 341.4 154.2 317L154.5 295.1L157.4 292.1C161.2 288.2 165.9 286.7 172.6 287.2C177.3 287.6 179.5 288.7 191.9 296.9C204.6 305.4 206.1 306.6 207.6 310.6C209.6 315.8 209 324.8 206.5 328.6C205.6 330 198.8 335.1 191.4 340.1L177.8 349H170.7C165.3 349 162.7 348.5 160.3 347ZM180.4 319.7C182.2 318.4 182.1 318.2 179.2 316.2C177.6 315 175.9 314 175.6 314C175.3 314 175 316 175 318.5C175 323.4 175.4 323.5 180.4 319.7Z" fill="#293232"/>
<path d="M281.9 495.7C278 492.7 278 493.6 278 381.1C278 321.2 278.3 271.5 278.6 270.6C278.9 269.7 280.2 269 281.4 269C283 269 286 272.6 293.5 283.2C299 291 305.2 299.5 307.3 302.2L311 307H388.6C471.4 307 471.3 307 473.9 311.8C475.6 315 475.2 317 473 317C471.5 317 470.8 316.1 470.4 314L469.8 311H389.9C337.3 311 310 310.7 310 310C310 309.5 309.1 309 307.9 309C306.7 309 305.6 308.2 305.3 307C305 305.9 304.4 305 303.9 305C303.4 305 303 304.1 303 303C303 301.9 302.3 301 301.5 301C300.7 301 300 300.3 300 299.5C300 298.7 299.6 298 299 298C298.5 298 298 297.1 298 296C298 294.9 297.3 294 296.5 294C295.7 294 295 293.3 295 292.5C295 291.7 294.6 291 294 291C293.5 291 293 290.1 293 289C293 287.9 292.3 287 291.5 287C290.7 287 290 286.3 290 285.5C290 284.7 289.6 284 289 284C288.5 284 288 283.1 288 282C288 280.9 287.3 280 286.5 280C285.7 280 285 279.3 285 278.5C285 277.7 284.6 277 284.1 277C283.6 277 282.9 276 282.7 274.8C282.5 273.5 282.2 321.5 282.1 381.3C282 495.2 281.9 493 285.9 493C286.5 493 287 493.9 287 495C287 497.3 284.4 497.6 281.9 495.7Z" fill="#6D6D6D"/>
<path d="M466 495C466 493.9 466.5 493 467.1 493C467.7 493 468.8 492.4 469.6 491.6C470.4 490.8 471 489.7 471 489.1C471 488.5 471.9 488 473 488C475.9 488 475.5 491.2 472.4 494.4C469.2 497.5 466 497.9 466 495Z" fill="#6D6D6D"/>
<path d="M370 480.5C370 478.7 369.5 478 368 478C366.6 478 366 477.3 366 475.6V473.2L346.3 472.8C335.4 472.6 325.7 472 324.8 471.6C323.7 471.1 323 469.7 323 467.9V465L325.7 466.7C328 468.2 331.5 468.6 349 469L369.5 469.5L370 473.5C370.4 476.8 371.1 477.8 373.7 479C378.1 481 377.9 483 373.5 483C370.4 483 370 482.7 370 480.5Z" fill="#6D6D6D"/>
<path d="M381.4 478.4C382.8 476.9 384 475.3 384 474.9C384 474.4 384.5 474 385 474C385.6 474 386 475.6 386 477.5C386 480.9 385.9 481 382.4 481H378.7L381.4 478.4Z" fill="#6D6D6D"/>
<path d="M384 471.1C384 469 384.4 469 403.6 469C425.4 469 428.6 468.3 432.2 462.6C433.9 459.8 434 457.9 433.8 444.8C433.5 430.8 433.4 430 431 427.4C429.6 426 427 424.1 425.3 423.4C421.4 421.7 420.9 419 424.5 419C426 419 427 419.6 427 420.4C427 421.3 428.2 422 430.3 422.2C433 422.4 433.6 423 433.8 425.3C434 426.8 434.7 428 435.4 428C437.5 428 438 431.4 438 445.1C438 461.3 437.5 464 434.4 464C432.4 464 432 464.5 432 467C432 469.3 431.5 470 430.1 470C429 470 428 470.6 427.8 471.3C427.4 472.2 421.9 472.6 405.7 472.8C384.3 473.1 384 473.1 384 471.1Z" fill="#6D6D6D"/>
<path d="M316 458.5C316 456.3 316.5 455 317.3 455C318.1 455 319.1 456.6 319.7 458.5C320.8 461.8 320.7 462 318.4 462C316.3 462 316 461.5 316 458.5Z" fill="#6D6D6D"/>
<path d="M334 453C334 451 334.7 451 366 451H398V444V437H409H420V445.3V453.7L406.3 454.3C398.8 454.7 379.5 455 363.3 455C334.7 455 334 455 334 453Z" fill="#6D6D6D"/>
<path d="M316 432.5C316 430.6 316.5 429 317 429C317.6 429 318 428.1 318 427C318 425.7 318.7 425 320 425C321.3 425 322 424.3 322 423.1C322 421.3 326.3 419 329.6 419C332.5 419 331 422.6 327.5 423.9C323.8 425.2 320.5 429 319.5 433.3C318.5 437.3 316 436.7 316 432.5Z" fill="#6D6D6D"/>
<path d="M346.2 397.8C346.5 375.6 346.7 373.1 348.6 368.9C351.7 362.2 356.4 357.5 363.2 354C368.2 351.6 370.6 351 376 351C385.7 351 391.5 353.3 398.1 359.9C406.5 368.3 407 370.6 407 398.7V422H396.3H385.5L385.8 402.8C386.1 390.7 385.8 381.4 385 377.6C383.6 370.5 379.1 361.4 375 357.5L372.1 354.7L366.8 357.1C360.7 359.8 354.4 366.5 351.8 373.2C350.4 376.8 350.1 381.3 350.1 399.8C350 421.5 350 422 347.9 422C345.9 422 345.9 421.7 346.2 397.8Z" fill="#6D6D6D"/>
<path d="M328.3 375.5C329.3 365.4 330.9 361 333.6 361H335.9L333.9 366.7C332.9 369.8 332 373.5 332 374.9C332 379.2 330.9 382 329.2 382C328 382 327.8 380.9 328.3 375.5Z" fill="#6D6D6D"/>
<path d="M260 323C260 269.7 260 269 262 269C264 269 264 269.7 264 323C264 376.3 264 377 262 377C260 377 260 376.3 260 323Z" fill="#6D6D6D"/>
<path d="M421.4 373.3C421 371.2 420.1 367.8 419.4 365.8C418.1 362.1 418.2 362 420.4 362C422.4 362 423 362.8 423.9 366.4C425.5 372.7 425.3 377 423.5 377C422.7 377 421.8 375.5 421.4 373.3Z" fill="#6D6D6D"/>
<path d="M240.3 372.3C238.5 370.4 237 368.6 237 368.4C237 368.1 238.7 368 240.8 368.2C244.3 368.5 244.5 368.7 244.8 372.3C245.2 376.8 244.5 376.8 240.3 372.3Z" fill="#6D6D6D"/>
<path d="M41.8001 368.9C38.9001 367.3 39.7001 366 43.5001 366C46.3001 366 47.0001 366.4 47.0001 368C47.0001 370.2 44.6001 370.6 41.8001 368.9Z" fill="#6D6D6D"/>
<path d="M67.7 369.3C67.3 369 67 346.2 67 318.8C67 269.7 67 269 69 269C71 269 71 269.7 71 319.5C71 360.9 70.8 370 69.7 370C68.9 370 68 369.7 67.7 369.3Z" fill="#6D6D6D"/>
<path d="M415.7 358.1C413.5 354.3 413.5 354 416.5 354C418.7 354 419 354.4 419 357.5C419 361.8 418 361.9 415.7 358.1Z" fill="#6D6D6D"/>
<path d="M335 356.5C335 354.1 335.5 353 336.5 353C337.3 353 338 352.1 338 351C338 349.4 338.7 349 341 349H344.1L340.3 354.5C338.2 357.5 336.2 359.9 335.8 360C335.3 360 335 358.4 335 356.5Z" fill="#6D6D6D"/>
<path d="M408.5 349C406.3 346.7 403.3 344.1 401.8 343.2C398.1 341 398.3 340 402.5 340C405.3 340 406 340.4 406 342C406 343.4 406.7 344 408.4 344C411.6 344 413.2 346.2 412.8 350L412.5 353.1L408.5 349Z" fill="#6D6D6D"/>
<path d="M345 345.1C345 342.3 345.3 342 348 342C350.2 342 351 341.5 351 340.2C351 338.1 354.8 336 358.5 336C359.9 336 361 335.6 361 335.1C361 334.6 362.1 333.9 363.5 333.6C365.5 333.1 366 332.3 366 330C366 328.3 366.5 327 367 327C367.6 327 368 326.1 368 325C368 322.5 371.5 321 377.6 321C381.3 321 382 321.3 382 323C382 324.5 382.7 325 384.5 325C386.7 325 387 325.4 387 328.5C387 332.9 384.9 333.2 383.3 329C382 325.5 378.1 323.6 374.7 324.9C371.4 326.2 370.2 328 369.8 332.5C369.5 336.2 369.3 336.4 365 337.5C359.7 338.9 352.8 342.3 348.3 345.8L345 348.2V345.1Z" fill="#6D6D6D"/>
<path d="M180 343.3C180 342.8 185 339.2 191 335.2L202 328V331C202 333 201.5 334 200.5 334C199.7 334 199 334.5 199 335C199 335.6 198.3 336 197.5 336C196.7 336 196 336.5 196 337C196 337.6 195.3 338 194.5 338C193.7 338 193 338.5 193 339C193 339.6 192.3 340 191.5 340C190.7 340 190 340.5 190 341C190 341.6 189.3 342 188.5 342C187.7 342 187 342.5 187 343C187 343.6 185.4 344 183.5 344C181.6 344 180 343.7 180 343.3Z" fill="#6D6D6D"/>
<path d="M390 338C386.7 337 384.4 335.6 384.2 334.6C383.8 332.7 385.4 332.6 391.6 334.1C395.3 335.1 396 335.6 396 337.6C396 338.9 395.9 340 395.8 339.9C395.6 339.8 393 339 390 338Z" fill="#6D6D6D"/>
<path d="M172 328C172 325.7 174.1 323 175.9 323C176.5 323 177 322.6 177 322C177 321.5 177.7 321 178.5 321C179.3 321 180 320.6 180 320C180 319.5 180.7 319 181.5 319C182.3 319 183 318.6 183 318.1C183 316.7 186.5 316.2 188.4 317.2C189.9 318.1 189.2 318.8 183.8 322.4C171 331 172 330.5 172 328Z" fill="#6D6D6D"/>
<path d="M205.4 320.6C205.8 318.4 205.5 315.7 204.5 313.2C203.1 309.7 201 308 189.2 300.2C181.7 295.2 174.5 290.9 173.2 290.5C167.6 288.9 158.8 294.3 157.5 300C156.6 304.3 154 303.9 154 299.5C154 297.6 154.4 296 154.9 296C155.4 296 156 295 156.2 293.9C156.4 292.7 157.4 291.2 158.5 290.6C159.6 290 160.8 289.1 161.2 288.5C162.3 287 179.2 287.2 179.8 288.8C180 289.4 180.8 290 181.6 290C182.4 290 183 290.5 183 291C183 291.6 183.7 292 184.5 292C185.3 292 186 292.5 186 293C186 293.6 186.7 294 187.5 294C188.3 294 189 294.5 189 295C189 295.6 189.7 296 190.5 296C191.3 296 192 296.5 192 297C192 297.6 192.7 298 193.5 298C194.3 298 195 298.5 195 299C195 299.6 195.7 300 196.5 300C197.3 300 198 300.5 198 301C198 301.6 198.7 302 199.5 302C200.3 302 201 302.5 201 303C201 303.6 201.7 304 202.5 304C203.3 304 204 304.7 204 305.5C204 306.3 204.6 307 205.4 307C207.4 307 209 312.3 209 318.6C209 323.4 208.8 324 206.9 324C205 324 204.9 323.6 205.4 320.6Z" fill="#6D6D6D"/>
<path d="M305.4 274.9C304.8 274.1 302.2 270.5 299.6 266.8L294.8 260H297.9C300 260 301 260.5 301 261.5C301 262.3 301.5 263 302 263C302.6 263 303 263.9 303 265C303 266.1 303.7 267 304.5 267C305.3 267 306.2 268.4 306.6 270.4C307.4 274.8 306.8 276.8 305.4 274.9Z" fill="#6D6D6D"/>
<path d="M51 256.5C51 252.6 53 251 57.9 251C60 251 61 251.5 61 252.5C61 253.3 60.3 254 59.4 254C58.6 254 56.5 255.4 54.8 257C53.2 258.7 51.7 260 51.4 260C51.2 260 51 258.4 51 256.5Z" fill="#6D6D6D"/>
<path d="M291 257C289.6 255.9 287.3 254.8 285.8 254.5C281.7 253.5 282.2 251 286.5 251C288.4 251 290 251.5 290 252C290 252.6 290.9 253 292 253C293.6 253 294 253.7 294 256C294 259.5 294.2 259.5 291 257Z" fill="#6D6D6D"/>
<path d="M54 236C54 234.7 53.3 234 52 234C50.4 234 50 233.3 50 230.5C50 226.1 52.1 225.9 53.7 230.1C54.5 232 56 233.5 57.9 234.3C62.1 235.9 61.9 238 57.5 238C54.7 238 54 237.6 54 236Z" fill="#6D6D6D"/>
<path d="M283 236.7C283 236 284.4 234.9 286.1 234.3C288 233.5 289.5 232 290.3 230.1C291.9 225.9 294 226.1 294 230.5C294 233.3 293.6 234 292 234C290.7 234 290 234.7 290 236C290 237.6 289.3 238 286.5 238C284.3 238 283 237.5 283 236.7Z" fill="#6D6D6D"/>
<path d="M67.2 161.3L67.5 102.5L80.3 102C91.5 101.6 93.3 101.3 94.6 99.6C95.9 97.7 96 97.9 96 101.2C96 104.4 95.7 104.8 92.9 105.4C91.2 105.7 85.5 106 80.4 106H71V163C71 219.4 71 220 69 220C67 220 67 219.5 67.2 161.3Z" fill="#6D6D6D"/>
<path d="M108 205C108 203.5 107.3 203 105.5 203C103.1 203 103 202.7 103 197.1C103 190.3 103.6 188 105.6 188C106.4 188 107 187 107 185.5C107 183.9 107.6 183 108.5 183C109.4 183 110 182.1 110 180.5C110 178.9 110.6 178 111.5 178C112.4 178 113 177.1 113 175.5C113 173.9 113.6 173 114.5 173C115.4 173 116 172.1 116 170.5C116 168.9 116.6 168 117.5 168C118.4 168 119 167.1 119 165.5C119 164.1 119.5 163 120 163C120.6 163 121 162.3 121 161.5C121 160.7 121.9 160 123 160C124.3 160 125 159.3 125 158C125 156.7 125.7 156 126.9 156C128 156 129 155.4 129.3 154.8C129.5 153.9 132.2 153.5 138 153.5C143.8 153.5 146.5 153.9 146.8 154.8C147 155.4 148 156 149.1 156C150.3 156 151 156.7 151 158C151 159.3 151.7 160 153 160C154.1 160 155 160.7 155 161.5C155 162.3 155.5 163 156 163C156.6 163 157 164.1 157 165.5C157 167.1 157.6 168 158.5 168C159.4 168 160 168.9 160 170.5C160 171.9 160.4 173 160.9 173C161.4 173 162.5 173.3 163.4 173.6C164.6 174.1 165 173.6 165 171.6C165 170 165.6 169 166.5 169C167.4 169 168 168.1 168 166.5C168 164.9 168.6 164 169.5 164C170.4 164 171 163.1 171 161.5C171 159.9 171.6 159 172.5 159C173.4 159 174 158.1 174 156.5C174 155.1 174.4 154 174.9 154C175.4 154 176.1 152.9 176.4 151.5C176.8 150.1 177.5 149 178 149C178.6 149 179 148.3 179 147.5C179 146.5 180 146 182 146C184.7 146 185 145.7 185 143C185 140.5 185.5 140 188.8 139.1C194.6 137.4 203 137.7 203 139.5C203 140.5 204.1 141 206.5 141C209.3 141 210 141.4 210 143C210 144.3 210.7 145 212 145C213.1 145 214 145.7 214 146.5C214 147.3 214.5 148 215 148C215.6 148 216 149.1 216 150.5C216 152.1 216.6 153 217.5 153C218.4 153 219 153.9 219 155.5C219 157.1 219.6 158 220.5 158C221.4 158 222 158.9 222 160.5C222 162.1 222.6 163 223.5 163C224.4 163 225 163.9 225 165.5C225 167.1 225.6 168 226.5 168C227.4 168 228 168.9 228 170.5C228 172.1 228.6 173 229.5 173C230.4 173 231 173.9 231 175.5C231 177.1 231.6 178 232.5 178C233.4 178 234 178.9 234 180.5C234 182.1 234.6 183 235.5 183C236.4 183 237 183.9 237 185.5C237 187 237.6 188 238.4 188C240.4 188 241 190.3 241 197.1C241 202.7 240.9 203 238.5 203C236.7 203 236 203.5 236 205C236 206.7 235.3 207 232 207C226.8 207 226.5 204.4 231.5 203.4C235.3 202.7 238 199.8 238 196.4C238 195.2 231.6 183.5 223.8 170.5C207.8 143.8 205.9 141.8 197.2 141.8C191.3 141.8 186.9 143.9 183.7 148.2C182.3 150 177.1 158.4 172 166.8L162.8 182.1L156.6 171.9C148.8 159.2 146.7 157.5 138 157.5C132.9 157.5 130.8 158 128.5 159.7C124.9 162.2 106 193.1 106 196.4C106 199.6 108.6 202.8 112 203.5C116.3 204.4 115.9 207 111.5 207C108.7 207 108 206.6 108 205Z" fill="#6D6D6D"/>
<path d="M127 188.4C127 187.1 137.2 171 138 171C138.8 171 149 187.1 149 188.4C149 188.7 147.9 189 146.5 189C144.5 189 144 188.5 144 186.5C144 184.9 143.4 184 142.5 184C141.6 184 141 183.1 141 181.5C141 179.4 140.5 179 138 179C135.5 179 135 179.4 135 181.5C135 183.1 134.4 184 133.5 184C132.6 184 132 184.9 132 186.5C132 188.5 131.5 189 129.5 189C128.1 189 127 188.7 127 188.4Z" fill="#6D6D6D"/>
<path d="M178.4 184.8C179.9 182.4 184 175.4 187.7 169.3C191.4 163.1 194.8 158 195.2 158C195.7 158 196 159.6 196 161.5C196 163.9 195.5 165 194.5 165C193.6 165 193 165.9 193 167.5C193 169.1 192.4 170 191.5 170C190.6 170 190 170.9 190 172.5C190 174.1 189.4 175 188.5 175C187.6 175 187 175.9 187 177.5C187 179.1 186.4 180 185.5 180C184.6 180 184 180.9 184 182.5C184 184.1 183.4 185 182.5 185C181.7 185 181 185.9 181 187C181 188.5 180.3 189 178.4 189H175.9L178.4 184.8Z" fill="#6D6D6D"/>
<path d="M212 186.5C212 184.9 211.4 184 210.5 184C209.6 184 209 183.1 209 181.5C209 179.9 208.4 179 207.5 179C206.6 179 206 178.1 206 176.5C206 174.9 205.4 174 204.5 174C203.6 174 203 173.1 203 171.5C203 169.9 202.4 169 201.5 169C200.6 169 200 168.1 200 166.5C200 164.9 199.4 164 198.5 164C197.5 164 197 162.9 197 160.5C197 158.6 197.3 157 197.8 157C198.5 157 217 187.2 217 188.4C217 188.7 215.9 189 214.5 189C212.5 189 212 188.5 212 186.5Z" fill="#6D6D6D"/>
<path d="M146.8 137.9C145.8 137.4 145 135.8 145 134.5C145 133.1 144.6 132 144 132C143.5 132 143 130.2 143 128C143 125.8 143.5 124 144 124C144.6 124 145 123.1 145 122C145 121 145.9 119.6 146.9 119C149.4 117.7 160 117.7 160 119C160 119.6 160.7 120 161.5 120C162.5 120 163 121.1 163 123.5C163 125.4 162.8 127 162.6 127C162.3 127 160.8 125.7 159.2 124C155.6 120.5 153.2 120.2 149.6 123.1C147.7 124.6 147 126.1 147 128.5C147 130.9 147.7 132.4 149.6 133.9C153.2 136.8 155.6 136.5 159.2 133C160.8 131.4 162.3 130 162.6 130C162.8 130 163 131.6 163 133.5C163 135.9 162.5 137 161.5 137C160.7 137 160 137.5 160 138C160 139.3 149 139.2 146.8 137.9Z" fill="#6D6D6D"/>
<path d="M118.8 105.3C117.8 105.1 117 104.2 117 103.4C117 102.6 116.4 102 115.6 102C114.8 102 113.9 100.6 113.5 99C112.6 94.7 113.8 88 115.6 88C116.4 88 117 87.3 117 86.5C117 85.5 118.1 85 120.5 85C122.9 85 124 85.5 124 86.5C124 87.3 123.3 88 122.5 88C120 88 117 91.8 117 95C117 96.7 117.9 98.9 119 100C121 102 122.3 102 198.5 102C275.3 102 276 102 276 104C276 106 275.4 106 198.3 105.9C155.5 105.8 119.7 105.6 118.8 105.3Z" fill="#6D6D6D"/>
<path d="M96.0001 93.1C96.0001 92.7 94.8001 91.1 93.4001 89.6L90.7001 87H94.4001C97.9001 87 98.0001 87.1 98.0001 90.5C98.0001 92.4 97.6001 94 97.0001 94C96.5001 94 96.0001 93.6 96.0001 93.1Z" fill="#6D6D6D"/>
<path d="M291 93.1C291 92.7 289.8 91.1 288.4 89.6L285.7 87H289.4C292.9 87 293 87.1 293 90.5C293 92.4 292.6 94 292 94C291.5 94 291 93.6 291 93.1Z" fill="#6D6D6D"/>
<path d="M53 42.5V39L55 41C56.1 42.1 57.7 43 58.5 43C59.3 43 60 43.7 60 44.5C60 45.5 58.9 46 56.5 46C53.2 46 53 45.8 53 42.5Z" fill="#6D6D6D"/>
<path d="M102 44.5C102 43.7 102.7 43 103.5 43C108 43 110.5 35.6 107.4 31.2C105.9 29 105.6 29 81.4 29C58.3 29 56.9 29.1 55 31C53.9 32.1 53 33.7 53 34.5C53 35.3 52.3 36 51.5 36C50.5 36 50 34.9 50 32.5C50 30.1 50.5 29 51.5 29C52.3 29 53 28.4 53 27.6C53 25.3 56.4 25 81.8 25C105.3 25 106 25.1 106 27C106 28.6 106.7 29 109 29H112V36C112 41.6 111.7 43 110.5 43C109.7 43 109 43.7 109 44.5C109 45.5 107.9 46 105.5 46C103.1 46 102 45.5 102 44.5Z" fill="#6D6D6D"/>
<path d="M271 37.5C271 35.3 271.5 34 272.3 34C273.1 34 274.1 35.6 274.7 37.5C275.8 40.8 275.7 41 273.4 41C271.3 41 271 40.5 271 37.5Z" fill="#6D6D6D"/>
<path d="M288 32.7C286.4 29.2 282.9 27.8 279.3 29.1C277.3 29.8 277 29.6 277 27.5C277 25.2 277.4 25 281.5 25C285.3 25 286 25.3 286 27C286 28.6 286.7 29 289 29C291.8 29 292 29.3 292 32.5C292 36.9 290 37.1 288 32.7Z" fill="#6D6D6D"/>
<path d="M280.7 494.2C278.4 491.6 278.5 489 281 489C282.6 489 283 489.7 283 492.5C283 496.5 282.9 496.6 280.7 494.2Z" fill="#838383"/>
<path d="M372 481.7C372 479.7 372.4 479.5 375.9 479.8C378.9 480.1 380.3 479.7 381.9 478.1L384 476V479.4C384 483.1 382.5 484 375.8 484C372.5 484 372 483.7 372 481.7Z" fill="#838383"/>
<path d="M329 471C329 468.9 330 468.6 333.8 469.6C337.4 470.6 336.5 473 332.5 473C329.7 473 329 472.6 329 471Z" fill="#838383"/>
<path d="M418 471.6C418 470.8 419.9 469.7 422.7 469.1C428.4 467.6 433.5 462.6 434.4 457.6C435.3 452.8 438 452.7 438 457.5C438 459.4 437.6 461 437 461C436.5 461 436 462.1 436 463.5C436 465.5 435.5 466 433.5 466C431.5 466 431 466.5 431 468.5C431 470.4 430.3 471.1 427.3 471.9C421.9 473.4 418 473.3 418 471.6Z" fill="#838383"/>
<path d="M319.3 467C319 465.9 318.4 465 317.9 465C317.4 465 317 463.4 317 461.5C317 457.5 318.4 456.9 320.1 460.3C320.7 461.5 322.6 464 324.3 465.8L327.4 469H323.6C320.7 469 319.7 468.6 319.3 467Z" fill="#838383"/>
<path d="M334 445.5V437H367.5H401V445.5V454H367.5H334V445.5Z" fill="#838383"/>
<path d="M431.8 428.2C430.8 426.6 428.3 424.5 426 423.5L422 421.7V399.8C422 378.7 422.1 378 424 378C425.9 378 426 378.7 426 399C426 419.3 426.1 420 428 420C429.3 420 430 420.7 430 422C430 423.5 430.7 424 432.5 424C434.7 424 435 424.4 435 427.5C435 431.7 434 431.9 431.8 428.2Z" fill="#838383"/>
<path d="M326 421.5C326 419.5 326.5 419 328.6 419C331.8 419 331.6 421.9 328.3 423.1C326.3 423.8 326 423.6 326 421.5Z" fill="#838383"/>
<path d="M347 398.7C347 372 347.6 369 354.2 361.5C358.5 356.6 365.3 352.6 371.1 351.5C374.3 350.9 375 351.2 378.3 354.9C387.4 365 389.2 373 388.8 401L388.5 421.5L367.8 421.8L347 422V398.7Z" fill="#838383"/>
<path d="M328 375.5C328 372.7 328.4 372 330 372C332.1 372 332.4 373 331.4 376.8C330.4 380.4 328 379.5 328 375.5Z" fill="#838383"/>
<path d="M42.4 369C39.8 368 37 364.2 37 361.8C37 359 40.8 359.5 41.6 362.4C42.1 364.6 44.5 366 47.8 366C48.7 366 49 354.8 49 313.1C49 284 49.3 258.8 49.6 257.1C50.2 254.4 50.6 254 53.6 254H57L55 256C53 258 53 259.3 53 314V370L48.8 369.9C46.4 369.9 43.5 369.5 42.4 369Z" fill="#838383"/>
<path d="M330 366.5C330 364.6 330.5 363 331 363C331.6 363 332 361.9 332 360.5C332 358.5 332.5 358 334.6 358C336 358 337 358.3 336.8 358.8C336.6 359.2 335.6 361.9 334.5 364.8C332.2 370.8 330 371.7 330 366.5Z" fill="#838383"/>
<path d="M416.2 358.7C410.4 348.4 399.7 340.2 388.2 337.1C385.5 336.3 384 335.4 384 334.3C384 333 384.8 332.8 388.8 333.4C391.4 333.7 393.7 334.5 393.8 335C394 335.6 395 336 396 336C399.7 336 403 338.2 403 340.7C403 342.7 403.5 343 406.5 343C409.3 343 410 343.4 410 344.9C410 346.2 410.8 347 412.3 347.2C413.7 347.4 414.6 348.3 414.8 349.8C415 351 415.8 352 416.6 352C417.4 352 418 353 418 354.5C418 356.1 418.6 357 419.5 357C420.5 357 421 358.1 421 360.5C421 362.4 420.6 364 420.1 364C419.6 364 417.8 361.6 416.2 358.7Z" fill="#838383"/>
<path d="M337 353.6C337 350.3 337.2 350 340.1 350H343.1L341 353C337.9 357.4 337 357.5 337 353.6Z" fill="#838383"/>
<path d="M163.3 348.9C160.7 348.1 160 347.4 160 345.5C160 343.5 159.5 343 157.6 343C156.3 343 154.9 342.2 154.4 341.3C154 340.3 153.5 330.8 153.2 320.3C152.8 301.2 152.8 301 154.9 301C157 301 157 301.4 157 318.5C157 338.1 157.6 340.6 163.3 344C167.7 346.7 173.6 346.5 178.5 343.5C183.5 340.4 184 340.4 184 343.5C184 345 183.4 346 182.6 346C181.8 346 181 346.5 180.8 347.1C180 349.5 169.2 350.6 163.3 348.9Z" fill="#838383"/>
<path d="M346 344C346 342 346.5 341 347.5 341C348.3 341 349 340.6 349 340C349 339.5 350.6 339 352.5 339C354.4 339 356 339.3 356 339.8C356 340.2 353.7 342 351 343.8L346 347V344Z" fill="#838383"/>
<path d="M357 337.5C357 335.1 359.2 334 364.3 334C368.8 334 367.4 336.5 362 338.2L357 339.8V337.5Z" fill="#838383"/>
<path d="M366 330.1C366 325.9 367 324 369.1 324C370.1 324 371 323.3 371 322.5C371 321.5 372.1 321 374.5 321C379 321 379.3 323.6 374.9 324.5C372.5 325.1 371.4 326.1 370.1 329.1C368.2 333.7 366 334.2 366 330.1Z" fill="#838383"/>
<path d="M204.1 324.3C206.2 320.1 206.5 317.3 205 313.6C204.1 311.2 204.3 311 206.5 311C208.9 311 209 311.3 209 317.3C209 326.3 208.3 328 205 328H202.2L204.1 324.3Z" fill="#838383"/>
<path d="M468 310.5C468 309.1 468.3 308 468.6 308C469.9 308 472.8 310.1 473.4 311.5C473.8 312.6 473.2 313 471 313C468.5 313 468 312.6 468 310.5Z" fill="#838383"/>
<path d="M307 307C307 304.5 306.6 304 304.5 304C302.3 304 302 303.6 302 300.5C302 297.4 301.7 297 299.5 297C297.3 297 297 296.6 297 293.5C297 290.4 296.7 290 294.5 290C292.3 290 292 289.6 292 286.5C292 283.4 291.7 283 289.5 283C287.3 283 287 282.6 287 279.5C287 276.4 286.7 276 284.5 276C282.3 276 282 275.6 282 272.3C282 267.4 282 267.4 297 288.5C303.7 297.9 310.2 306.1 311.6 306.8C315 308.6 314.6 310 310.5 310C307.3 310 307 309.8 307 307Z" fill="#838383"/>
<path d="M188.8 299.7C181.2 294.6 175 290.2 175 289.8C175 289.3 176.6 289 178.5 289C180.4 289 182 289.5 182 290C182 290.6 182.7 291 183.5 291C184.3 291 185 291.5 185 292C185 292.6 185.7 293 186.5 293C187.3 293 188 293.5 188 294C188 294.6 188.7 295 189.5 295C190.3 295 191 295.5 191 296C191 296.6 191.7 297 192.5 297C193.3 297 194 297.5 194 298C194 298.6 194.7 299 195.5 299C196.3 299 197 299.5 197 300C197 300.6 197.7 301 198.5 301C199.3 301 200 301.5 200 302C200 302.6 200.7 303 201.5 303C202.5 303 203 304 203 306C203 307.7 202.9 309 202.8 308.9C202.6 308.9 196.3 304.7 188.8 299.7Z" fill="#838383"/>
<path d="M159 292C159 289.2 159.3 289 162.5 289C166.9 289 166.9 289.9 162.5 292.8L159 295V292Z" fill="#838383"/>
<path d="M302.4 270.3C297.1 262.5 292.2 257.2 288.8 255.4C285 253.4 285.3 252 289.5 252C291.9 252 293 252.5 293 253.5C293 254.3 293.8 255 294.8 255C297.1 255 299 256.9 299 259.2C299 260.2 299.7 261 300.5 261C301.3 261 302 261.7 302 262.5C302 263.3 302.5 264 303 264C303.6 264 304 264.9 304 266C304 267.1 304.7 268 305.5 268C306.6 268 307 269.1 307 272C307 274.2 306.8 276 306.7 276C306.5 276 304.6 273.4 302.4 270.3Z" fill="#838383"/>
<path d="M51.6999 236.3C51.2999 236 50.9999 234.6 50.9999 233.3C50.9999 232.1 50.5999 231 49.9999 231C48.8999 231 48.4999 96.6 49.5999 91.1C49.9999 89.4 50.8999 88 51.5999 88C52.3999 88 52.9999 87.4 52.9999 86.6C52.9999 84.4 56.3999 84 74.4999 84C92.5999 84 95.9999 84.4 95.9999 86.6C95.9999 87.4 96.6999 88 97.4999 88C98.6999 88 98.9999 89.4 98.9999 95V102H95.9999C93.6999 102 92.9999 102.4 92.9999 104C92.9999 105.6 92.2999 106 89.4999 106C84.6999 106 84.7999 103.3 89.4999 102.4C95.5999 101.3 98.1999 94.2 93.9999 90C92.1999 88.2 90.6999 88 74.4999 88C58.2999 88 56.7999 88.2 54.9999 90C52.9999 92 52.9999 93.3 52.9999 161.4V230.8L55.9999 233.3C57.6999 234.7 58.9999 236.1 58.9999 236.4C58.9999 237.2 52.4999 237.1 51.6999 236.3Z" fill="#838383"/>
<path d="M285 236.5C285 236.2 286.4 234.7 288 233.3L291 230.8V161.4C291 93.2 291 92 289 90C287 88 286 88 203 88.2L119 88.5V86.3V84H202.8C248.8 84 287.5 84.3 288.8 84.6C290 85 291 85.9 291 86.6C291 87.4 291.6 88 292.4 88C293.1 88 294 89.4 294.4 91.1C295.4 96.3 295.1 231 294.1 231C293.6 231 293 232.2 292.8 233.8C292.5 236.1 292 236.5 288.8 236.8C286.7 237 285 236.8 285 236.5Z" fill="#838383"/>
<path d="M105 189.5C105 187.1 105.5 186 106.5 186C107.4 186 108 185.1 108 183.5C108 181.9 108.6 181 109.5 181C110.4 181 111 180.1 111 178.5C111 176.9 111.6 176 112.5 176C113.4 176 114 175.1 114 173.5C114 171.9 114.6 171 115.5 171C116.4 171 117 170.1 117 168.5C117 166.9 117.6 166 118.5 166C119.4 166 120 165.1 120 163.5C120 161.4 120.5 161 122.9 161H125.8L116.1 177C110.8 185.8 106.2 193 105.8 193C105.3 193 105 191.4 105 189.5Z" fill="#838383"/>
<path d="M225.2 172.6C218.5 161.4 213 151.9 213 151.6C213 151.3 214.1 151 215.5 151C217.5 151 218 151.5 218 153.5C218 155.1 218.6 156 219.5 156C220.4 156 221 156.9 221 158.5C221 160.1 221.6 161 222.5 161C223.4 161 224 161.9 224 163.5C224 165.1 224.6 166 225.5 166C226.4 166 227 166.9 227 168.5C227 170.1 227.6 171 228.5 171C229.4 171 230 171.9 230 173.5C230 175.1 230.6 176 231.5 176C232.4 176 233 176.9 233 178.5C233 180.1 233.6 181 234.5 181C235.4 181 236 181.9 236 183.5C236 185.1 236.6 186 237.5 186C238.5 186 239 187.1 239 189.5C239 191.4 238.7 193 238.2 193C237.8 193 232 183.8 225.2 172.6Z" fill="#838383"/>
<path d="M156.2 171L150.2 161H153.1C155.5 161 156 161.4 156 163.5C156 165.1 156.6 166 157.5 166C158.4 166 159 166.9 159 168.5C159 170.1 159.6 171 160.5 171C161.4 171 162.1 172 162.1 173.8C162.3 176.1 162.3 176.2 162.7 174.3C162.9 173 163.8 172 164.6 172C165.4 172 166 171 166 169.5C166 167.9 166.6 167 167.5 167C168.4 167 169 166.1 169 164.5C169 162.9 169.6 162 170.5 162C171.4 162 172 161.1 172 159.5C172 157.9 172.6 157 173.5 157C174.4 157 175 156.1 175 154.5C175 152.9 175.6 152 176.5 152C177.4 152 178 151.1 178 149.5C178 148.1 178.3 147 178.8 147C179.2 147 180 146 180.5 144.8C181.3 143.1 182.5 142.4 185.4 142.2L189.4 141.9L185.4 146.2C183.3 148.6 177.4 157.4 172.5 165.7C167.5 174.1 163.2 181 162.9 181C162.6 181 159.6 176.5 156.2 171Z" fill="#838383"/>
<path d="M132 154.8C132 153.3 132.8 153 138 153C143.2 153 144 153.3 144 154.8C144 156.4 143.2 156.7 138 156.7C132.8 156.7 132 156.4 132 154.8Z" fill="#838383"/>
<path d="M204 143.3C200.3 141.3 198.6 141 194.8 141.5C190.4 142 190 141.9 190 140C190 138.2 190.6 138 196.4 138C205.4 138 209 139.4 209 143.1C209 144.7 208.9 145.9 208.8 145.9C208.6 145.8 206.5 144.6 204 143.3Z" fill="#838383"/>
<path d="M155 137C155 136.5 155.4 136 155.8 136C158 136 161 131.7 161 128.5C161 125.3 158 121 155.8 121C155.4 121 155 120.6 155 120C155 119.5 156.6 119 158.5 119C161.6 119 162 119.3 162 121.5C162 123.1 162.6 124 163.5 124C164.6 124 165 125.2 165 128.5C165 131.8 164.6 133 163.5 133C162.6 133 162 133.9 162 135.5C162 137.7 161.6 138 158.5 138C156.6 138 155 137.6 155 137Z" fill="#838383"/>
<path d="M143.5 133C143.2 131.4 143.2 128.1 143.5 125.5C144.2 121.1 144.3 121 147.9 121.1C149.9 121.1 150.9 121.4 150.2 121.7C149.5 122 148.3 123.5 147.5 125C145.8 128.2 146.8 132.5 149.7 134.8C151.1 135.8 150.9 136 147.8 136C144.6 136 144.1 135.7 143.5 133Z" fill="#838383"/>
<path d="M119 103.6C119 101.3 119.2 101.2 122.5 102.3C124.4 102.9 126 103.9 126 104.7C126 105.5 124.7 106 122.5 106C119.5 106 119 105.7 119 103.6Z" fill="#838383"/>
<path d="M113 95C113 90.4 113.2 90 115.4 90C117.6 90 117.8 90.3 117.1 92.8C116.6 94.3 116.7 96.5 117.1 97.8C117.8 99.7 117.6 100 115.5 100C113.2 100 113 99.6 113 95Z" fill="#838383"/>
<path d="M204 173.5C204 171.9 203.4 171 202.5 171C201.6 171 201 170.1 201 168.5C201 166.9 200.4 166 199.5 166C198.7 166 198 165.1 198 164C198 162.9 197.3 162 196.5 162C195.6 162 195 162.9 195 164.5C195 166.1 194.4 167 193.5 167C192.6 167 192 167.9 192 169.5C192 171.5 191.5 172 189.5 172C188.1 172 187 171.7 187 171.3C187.1 169.9 195.6 156.6 196.6 156.3C197.5 156 209 173.7 209 175.4C209 175.7 207.9 176 206.5 176C204.5 176 204 175.5 204 173.5Z" fill="#6C7FD8"/>
<path d="M37 55C37 53 37.7 53 144 53H251.1L250.7 36.8C250.5 27.8 250 19.3 249.5 17.8L248.8 15H275H301.2L304.1 17.9L307 20.8V38.9V57H172C37.7 57 37 57 37 55ZM287 41C289.5 38.5 289.6 32.9 287.3 30.7C286.3 29.9 284.3 28.8 282.8 28.5C280.6 27.9 279.5 28.4 277 30.8C273.5 34.4 273.2 36.8 276.1 40.4C278.7 43.7 284 44 287 41Z" fill="#766964"/>
<path d="M55.0001 45C55.0001 43.6 54.3001 43 52.6001 43C51.3001 43 49.9001 42.3 49.6001 41.4C48.6001 38.8 48.9001 31 50.0001 31C50.6001 31 51.0001 30.1 51.0001 29C51.0001 27.7 51.7001 27 53.0001 27C54.1001 27 55.0001 26.6 55.0001 26C55.0001 25.5 56.6001 25 58.5001 25C62.8001 25 63.3001 27.5 59.3001 28.5C57.7001 28.8 55.7001 29.9 54.8001 30.7C52.6001 32.7 52.5001 37.8 54.6001 40.8C56.1001 43 56.4001 43 80.9001 43C108.7 43 109 42.9 109 35.8C109 31.9 107 29.5 102.8 28.5C98.7001 27.4 99.2001 25 103.6 25C108.1 25 111 26.5 111 29C111 30.1 111.5 31 112 31C112.6 31 113 33.3 113 36C113 38.8 112.6 41 112 41C111.5 41 111 41.9 111 43C111 44.3 110.3 45 109 45C107.9 45 107 45.5 107 46C107 46.6 97.7001 47 81.0001 47C55.7001 47 55.0001 46.9 55.0001 45Z" fill="#6C7FD8"/>
<path d="M37 23.4C37 20 42 15 45.4 15C49.2 15 49 18.6 45.1 19.5C42.9 20 42 20.9 41.5 23.1C40.6 27 37 27.2 37 23.4Z" fill="#6C7FD8"/>
<path d="M37 40.1C37 30.9 37.5 22.9 38.1 21C40.3 14.7 35.5 15 148.9 15C249.7 15 252 15 253 16.9C253.6 18.1 254 26.5 254 37.4V56H145.5H37V40.1ZM105.4 42.9C109 41.2 110.6 36.8 109 33C108.3 31.3 106.9 29.5 105.9 29C103.4 27.6 59.7 27.7 56.7 29.1C54.2 30.2 52 33.8 52 36.6C52 37.5 53.3 39.5 54.9 41.1L57.8 44H80.4C95 44 103.8 43.6 105.4 42.9Z" fill="#A39590"/>
<path d="M445.6 493.8C446.7 489.6 446.7 314.5 445.6 310.8L444.8 308H457.1C470 308.1 471.6 308.5 473.8 312.7C474.7 314.3 475 337.9 475 403V491.2L472.1 494.1C469.2 497 469.1 497 457 497H444.8L445.6 493.8Z" fill="#F9BA38"/>
<path d="M280.2 302.2C279.3 301.5 279 297.5 279.2 285.4C279.5 271.6 279.7 269.5 281.2 269.2C282.3 269 286.2 273.7 294.1 284.7C300.3 293.4 305.8 301.1 306.3 301.8C307 302.7 304.5 303 294.4 303C287.3 303 280.9 302.6 280.2 302.2Z" fill="#EFC570"/>
<path d="M172 327C172 325 172.5 324 173.5 324C174.3 324 175 323.6 175 323C175 322.5 175.7 322 176.5 322C177.3 322 178 321.6 178 321C178 320.5 178.7 320 179.5 320C182.2 320 181.1 318.2 176.5 315C173.2 312.7 172 311.2 172 309.4C172 308 172.4 307 172.9 307.2C174.8 307.9 189 317.5 189 318.1C189 318.4 185.2 321.2 180.5 324.4L172 330V327Z" fill="#FC4D0D"/>
<path d="M127.2 188.2C129.1 183.6 136.8 172 138 172C139.2 172 146.9 183.6 148.8 188.2C149 188.6 144.1 189 138 189C131.9 189 127 188.6 127.2 188.2ZM142 184C142 183.5 141.6 183 141 183C140.5 183 139.8 181.9 139.4 180.5C139.1 179.1 138.4 178 138 178C137.6 178 136.9 179.1 136.6 180.5C136.2 181.9 135.5 183 135 183C134.4 183 134 183.5 134 184C134 184.6 135.8 185 138 185C140.2 185 142 184.6 142 184Z" fill="#FC4D0D"/>
<path d="M177.5 187.3C177.8 186.3 182.2 178.8 187.2 170.7C195.9 156.5 196.4 155.9 198 157.7C199.7 159.5 217 187.6 217 188.5C217 188.8 208 189 196.9 189C178.2 189 176.8 188.9 177.5 187.3Z" fill="#FC4D0D"/>
<path d="M243 375.5C243 374.7 242.1 373.1 241 372C239 370 237.7 370 153.5 370C68.7 370 68 370 68 368C68 366 68.7 366 153.3 366C200.1 366 239.5 366.3 240.8 366.6C242 367 243 367.9 243 368.6C243 369.4 243.6 370 244.4 370C245.7 370 247 372.8 247 375.8C247 376.4 246.1 377 245 377C243.9 377 243 376.3 243 375.5Z" fill="#6BD9E7"/>
<path d="M251 323V269H257H263V323V377H257H251V323Z" fill="#14B4B7"/>
<path d="M165 348.1C165 346.5 165.8 346.2 170 346.2C174.6 346.2 176.1 345.6 186.3 338.9C200.1 329.8 204.7 325.7 205.5 321.9C206.4 317.7 209 318.1 209 322.5C209 324.4 208.6 326 208 326C207.5 326 207 326.8 207 327.8C207 329.9 204.1 333 202.2 333C201.5 333 201 333.5 201 334C201 334.6 200.3 335 199.5 335C198.7 335 198 335.5 198 336C198 336.6 197.3 337 196.5 337C195.7 337 195 337.5 195 338C195 338.6 194.3 339 193.5 339C192.7 339 192 339.5 192 340C192 340.6 191.3 341 190.5 341C189.7 341 189 341.5 189 342C189 342.6 188.3 343 187.5 343C186.7 343 186 343.5 186 344C186 344.6 185.3 345 184.5 345C183.7 345 183 345.5 183 346C183 346.6 181.4 347 179.5 347C177.1 347 176 347.5 176 348.5C176 349.7 174.7 350 170.5 350C165.8 350 165 349.7 165 348.1Z" fill="#6BD9E7"/>
<path d="M157 342.3V338.6L160.5 342C162.4 343.9 164 345.5 164 345.7C164 345.9 162.4 346 160.5 346C157.1 346 157 345.9 157 342.3Z" fill="#6BD9E7"/>
<path d="M153 333.5C153 328.6 155.3 327.1 156.4 331.3C157.6 335.7 157.1 338 155 338C153.3 338 153 337.3 153 333.5Z" fill="#6BD9E7"/>
<path d="M153 303.8C153 302 153.5 298.8 154.1 296.8C155 293.5 155.5 293 158 293H160.9L159.1 296.3C158.1 298 156.9 301.2 156.6 303.3C155.7 308.1 153 308.4 153 303.8Z" fill="#6BD9E7"/>
<path d="M163 289.4C163 287.3 163.5 287 166.5 287C168.7 287 170 287.5 170 288.3C170 289.1 168.4 290.1 166.5 290.7C163.2 291.8 163 291.7 163 289.4Z" fill="#6BD9E7"/>
<path d="M174.3 290.8C169.8 289.3 170 287 174.5 287C177.6 287 178 287.3 178 289.5C178 290.9 177.9 292 177.8 291.9C177.6 291.8 176 291.3 174.3 290.8Z" fill="#6BD9E7"/>
<path d="M251 161.5V103H263.5H276V161.5V220H263.5H251V161.5Z" fill="#14B4B7"/>
<path d="M105.8 205.9C104.8 205.4 104 204 104 203C104 201.9 103.6 201 103 201C101.9 201 101.7 194.8 102.6 191.3C103 190 103.9 189 104.6 189C105.4 189 106 188 106 186.5C106 184.9 106.6 184 107.5 184C108.4 184 109 183.1 109 181.5C109 179.9 109.6 179 110.5 179C111.4 179 112 178.1 112 176.5C112 174.9 112.6 174 113.5 174C114.4 174 115 173.1 115 171.5C115 169.9 115.6 169 116.5 169C117.4 169 118 168.1 118 166.5C118 164.7 118.5 164 120 164C121.6 164 122 163.3 122 161C122 158.7 122.4 158 124 158C125.1 158 126 157.4 126 156.6C126 153.4 140 151.7 146.9 154.1C149.4 155 150 155.8 150 158V160.7L145.3 158.4C139.7 155.5 136.8 155.4 131.5 157.9C126.1 160.4 124.6 162.2 114.6 179C105 195.2 104.2 198.4 108.6 201.9C110.1 203.1 111.9 204 112.6 204C113.4 204 114 204.7 114 205.5C114 207.3 108.5 207.5 105.8 205.9Z" fill="#6BD9E7"/>
<path d="M230 205.5C230 204.7 230.6 204 231.4 204C232.1 204 233.9 203.1 235.4 201.9C240.2 198.1 239.3 195.6 224.5 171C217.1 158.7 209.5 147.1 207.8 145.3L204.6 142H208.4C211.3 142 212.3 142.4 212.7 144C213 145.1 213.6 146 214.1 146C214.6 146 215 146.7 215 147.5C215 148.3 215.5 149 216 149C216.6 149 217 150.1 217 151.5C217 153.1 217.6 154 218.5 154C219.4 154 220 154.9 220 156.5C220 158.1 220.6 159 221.5 159C222.4 159 223 159.9 223 161.5C223 163.1 223.6 164 224.5 164C225.4 164 226 164.9 226 166.5C226 168.1 226.6 169 227.5 169C228.4 169 229 169.9 229 171.5C229 173.1 229.6 174 230.5 174C231.4 174 232 174.9 232 176.5C232 178.1 232.6 179 233.5 179C234.4 179 235 179.9 235 181.5C235 183.1 235.6 184 236.5 184C237.4 184 238 184.9 238 186.5C238 188 238.6 189 239.4 189C240.1 189 241 190 241.4 191.3C242.3 194.8 242.1 200 241 200C240.5 200 240 201.1 240 202.5C240 205.3 237.5 207 233.1 207C231 207 230 206.5 230 205.5Z" fill="#6BD9E7"/>
<path d="M157.7 173.1C155.1 168.7 153 164.9 153 164.6C153 164.3 154.1 164 155.5 164C157.5 164 158 164.5 158 166.5C158 168.1 158.6 169 159.5 169C160.4 169 161 169.9 161 171.5C161 173.1 161.6 174 162.5 174C163.3 174 164 173.1 164 172C164 170.9 164.7 170 165.5 170C166.4 170 167 169.1 167 167.5C167 165.9 167.6 165 168.5 165C169.4 165 170 164.1 170 162.5C170 160.9 170.6 160 171.5 160C172.4 160 173 159.1 173 157.5C173 155.9 173.6 155 174.5 155C175.4 155 176 154.1 176 152.5C176 150.5 176.5 150 178.5 150C179.9 150 181 150.3 181 150.6C181 151.4 165 178.2 163.6 179.7C162.7 180.7 161.4 179.1 157.7 173.1Z" fill="#6BD9E7"/>
<path d="M183 144C183 142.1 183.5 141 184.4 141C185.2 141 186 140.5 186.2 139.9C186.4 139.3 188.7 138.6 191.3 138.3C195.1 137.8 196 138 196 139.3C196 140.1 194.8 141.1 193.3 141.5C191.7 141.8 188.8 143.2 186.8 144.6L183 147V144Z" fill="#6BD9E7"/>
<path d="M147 136.5C147 134.7 146.5 134 145 134C143.2 134 143 133.3 143 128.5C143 123.7 143.2 123 145 123C146.5 123 147 122.3 147 120.5C147 118.3 147.4 118 150.5 118C154.9 118 155.1 120 150.8 122C144.9 124.8 145 133 151 135.3C155.2 136.9 154.9 139 150.5 139C147.4 139 147 138.7 147 136.5Z" fill="#6BD9E7"/>
<path d="M157.8 135.3C158.5 135 159.7 133.5 160.6 131.8C161.9 129.3 161.9 128.3 160.9 125.9C160.3 124.3 159 122.5 158.1 122C156.9 121.3 157.4 121.1 160.1 121C164.3 121 165 122 165 128.5C165 135 164.3 136 160.1 135.9C158.1 135.9 157.1 135.6 157.8 135.3Z" fill="#6BD9E7"/>
<path d="M87 104.7C87 103.9 88.6 102.9 90.5 102.3C93.8 101.2 94 101.3 94 103.6C94 105.7 93.5 106 90.5 106C88.3 106 87 105.5 87 104.7Z" fill="#6BD9E7"/>
<path d="M115 100.5C115 98.6 115.2 97 115.4 97C116 97 122 103 122 103.6C122 103.8 120.4 104 118.5 104C115.2 104 115 103.8 115 100.5Z" fill="#6BD9E7"/>
<path d="M95.7999 96C96.0999 92.9 96.5999 92 98.0999 92C99.5999 92 99.9999 92.7 99.9999 96C99.9999 99.5 99.6999 100 97.6999 100C95.6999 100 95.4999 99.6 95.7999 96Z" fill="#6BD9E7"/>
<path d="M172 318V306.9L176.3 309.8C178.6 311.4 182.5 313.9 184.9 315.4L189.2 318.2L181.1 323.6C176.7 326.6 172.8 329 172.5 329C172.2 329 172 324 172 318Z" fill="#FF8254"/>
<path d="M128 187.5C128 186.4 137.2 172 138 172C138.8 172 148 186.4 148 187.5C148 187.8 143.5 188 138 188C132.5 188 128 187.8 128 187.5Z" fill="#FF8254"/>
<path d="M281.5 494.5L279 492.1V394V295.9L281.6 297.9C283.9 299.7 285.7 300 294.5 300H304.8L307.8 303.8L310.8 307.5L379.2 307.8C441.8 308 447.6 308.2 448.8 309.7C450.3 311.8 450.6 490.3 449 494.4L448 497H366H283.9L281.5 494.5ZM382.3 477.8C383.2 476.7 384 474.5 384 473V470.1L404.4 469.8C423.2 469.5 425.1 469.3 427.6 467.4C433.8 462.8 434.5 460.9 434.8 447.2C435.1 435.6 434.9 434.1 432.8 430.1C431.3 427.2 429.2 425 426.9 423.8L423.2 421.9L422.8 397.7C422.4 376 422.1 372.8 420.1 367.1C414.8 351.7 401.9 339.7 387.3 336.5C384.3 335.9 384 335.5 384 332C384 327.6 380.5 324 376.3 324C372.7 324 369 328.2 369 332.4C369 335.7 368.7 336 364.8 337.1C349 341.2 335.5 355.6 332.1 371.8C331.5 374.8 331 386.8 331 399.3V421.5L327.3 423.5C325.2 424.6 322.5 427 321.3 428.9C319.2 432 319 433.4 319 445.2C319 460.2 320.1 463.6 325.9 467.2C329.3 469.4 330.8 469.5 349.3 469.8L369 470.2V472.7C369 474.1 370.3 476.4 372 478.2C374.5 480.6 375.6 481.1 377.8 480.6C379.3 480.2 381.3 479 382.3 477.8Z" fill="#EFC570"/>
<path d="M242.8 374.3C240.2 368.9 243 369 152.3 369H68V319V269H161H254V323V377H249.1C244.7 377 244 376.7 242.8 374.3ZM175.4 345.6C182 342.9 202.9 328.1 204.5 325C206.6 321 206.4 315.1 204 311.2C202.8 309.2 197 304.7 188.4 299C173.4 289 169.8 288 163.3 292C157.1 295.8 156.5 297.6 156.2 316.7C155.9 332.7 156 334.4 158 338.4C159.5 341.6 161.3 343.4 164.3 344.9C169.3 347.4 170.9 347.5 175.4 345.6Z" fill="#A6E7F0"/>
<path d="M292 257L288.5 254.1L292.3 254C295.8 254 296 254.2 296 257C296 258.7 295.9 260 295.7 260C295.6 260 293.9 258.7 292 257Z" fill="#A6E7F0"/>
<path d="M252 252C252 250.1 252.7 250 269.5 250C286.3 250 287 250.1 287 252C287 253.9 286.3 254 269.5 254C252.7 254 252 253.9 252 252Z" fill="#A6E7F0"/>
<path d="M68 161.5V103H79.6C91.1 103 91.2 103 94.1 100C96.4 97.7 96.9 96.5 96.4 94.5L95.8 92H106.4C115.4 92 116.9 92.2 116.4 93.5C115.4 95.9 117.9 100.6 120.6 101.9C122.4 102.7 142 103 188.5 103H254V161.5V220H161H68V161.5ZM235 203C237.4 201.7 239.2 196.5 238 193.7C237.5 192.5 230.9 181.2 223.3 168.5C210.6 147.6 209 145.4 204.9 143.2C199.1 140.1 191.7 140.5 186.8 144.2C184.8 145.7 179.4 153.5 173.1 163.9L162.8 181.1L157.8 172.8C149.5 159 144.4 155.1 135.8 156.3C128.9 157.2 125.7 160.4 116.5 175.7C104.5 195.5 104.5 195.5 106 199.1C106.7 200.7 108 202.5 108.9 203C111.1 204.3 232.5 204.3 235 203ZM159.5 133.5C160.9 132.2 162 129.9 162 128.5C162 121.8 152.2 118.4 148.1 123.6C141.9 131.5 152.4 140.6 159.5 133.5Z" fill="#A6E7F0"/>
<path d="M291.6 95.8C290.6 92 290.9 91 293 91C294.6 91 295 91.7 295 94.5C295 98.5 292.6 99.4 291.6 95.8Z" fill="#A6E7F0"/>
<path d="M285.3 87.8C280.8 86.3 281 84 285.5 84C288.6 84 289 84.3 289 86.5C289 87.9 288.9 89 288.8 88.9C288.6 88.8 287 88.3 285.3 87.8Z" fill="#A6E7F0"/>
<path d="M43.3 368.9C38.3 367.4 34.6 359 39 359C40.1 359 41 359.7 41 360.5C41 363.2 44.8 366 48.5 366C51.3 366 52 366.4 52 368C52 370.2 49 370.5 43.3 368.9Z" fill="#D4F2F6"/>
<path d="M300 266.8C289.4 252 304.7 253.5 171.5 253.9C77.3 254.1 57.1 254.4 55.4 255.5C54.2 256.3 53 258.4 52.6 260.4C51.7 265.2 49 265.3 49 260.5C49 257.7 49.4 257 51 257C52.5 257 53 256.3 53 254.1C53 252 53.6 251.1 55.3 250.6C56.5 250.3 101 250 154.3 250H251V242.5V235H269C285.5 235 287.2 234.8 288.9 233.1C290 232 291.2 229.6 291.5 227.8C291.8 226 292 194.6 291.8 158.2L291.5 91.8L288.7 89.4C286 87.1 285.4 87 268.4 87H251V79.5V72H279H307V174C307 230.1 306.9 276 306.8 275.9C306.6 275.9 303.6 271.8 300 266.8Z" fill="#D4F2F6"/>
<path d="M49.6 232.8C49.3 231.5 49 229.3 49 227.8C49 223.9 51.7 224.2 52.5 228.1C52.9 229.8 54.1 232.1 55.1 233.1C57 235 56.9 235 53.6 235C51 235 50.1 234.5 49.6 232.8Z" fill="#D4F2F6"/>
<path d="M49 94C49 90.4 49.3 90 51.4 90C53.7 90 53.7 90.2 52.8 94C52.2 96.2 51.2 98 50.4 98C49.4 98 49 96.7 49 94Z" fill="#D4F2F6"/>
<path d="M96 93C96 91.7 96.7 91 98 91C99.3 91 100 91.7 100 93C100 94.3 99.3 95 98 95C96.7 95 96 94.3 96 93Z" fill="#D4F2F6"/>
<path d="M115 89.5C115 86.2 115.2 86 118.5 86C120.4 86 122 86.2 122 86.4C122 87 116 93 115.4 93C115.2 93 115 91.4 115 89.5Z" fill="#D4F2F6"/>
<path d="M55 86.4C55 84.3 55.5 84 58.5 84C60.7 84 62 84.5 62 85.3C62 86.1 60.4 87.1 58.5 87.7C55.2 88.8 55 88.7 55 86.4Z" fill="#D4F2F6"/>
<path d="M90.3 87.8C85.8 86.3 86 84 90.5 84C93.6 84 94 84.3 94 86.5C94 87.9 93.9 89 93.8 88.9C93.6 88.8 92 88.3 90.3 87.8Z" fill="#D4F2F6"/>
<path d="M39.9 366.4L37.5 363.8L37.2 217.9L37 72H145.5H254V79.5V87H188.5C142 87 122.4 87.3 120.6 88.1C119.3 88.8 117.6 90.6 116.9 92.1L115.8 95H106.4C97.3 95 96.9 94.9 96 92.6C94.1 87.6 91.9 87 74.2 87H57.8L54.9 89.9L52 92.9L52.2 162L52.5 231.2L54.9 233.1C57.1 234.9 60.2 235 155.6 235H254V244V253L155.5 253.2L57.1 253.5L54.8 255.8L52.5 258.1L52.2 313.5L52 369H47.1C43.3 369 41.9 368.5 39.9 366.4Z" fill="#EAF9FA"/>
</svg>
